<?xml version="1.0" encoding="utf-8"?>
<!-- Generator: Adobe Illustrator 16.0.0, SVG Export Plug-In . SVG Version: 6.00 Build 0)  -->
<!DOCTYPE svg PUBLIC "-//W3C//DTD SVG 1.1//EN" "http://www.w3.org/Graphics/SVG/1.1/DTD/svg11.dtd">
<svg version="1.1" id="Layer_1" xmlns="http://www.w3.org/2000/svg" xmlns:xlink="http://www.w3.org/1999/xlink" x="0px" y="0px"
	 width="128px" height="128px" viewBox="0 0 128 128" enable-background="new 0 0 128 128" xml:space="preserve">
<g>
	<g>
		<rect x="61.995" y="20.729" fill="#282D33" width="4.012" height="33.239"/>
	</g>
	<g>
		<path fill="#282D33" d="M64.001,25.151L51.269,12.577L64.001,0l12.732,12.577L64.001,25.151z M56.978,12.577l7.023,6.936
			l7.023-6.936l-7.023-6.938L56.978,12.577z"/>
	</g>
	<g>
		<polygon fill="#282D33" points="64,43.965 45.095,25.292 47.913,22.438 64,38.326 80.088,22.438 82.906,25.292 		"/>
	</g>
	<g>
		
			<rect x="23.855" y="48.669" transform="matrix(0.8687 0.4953 -0.4953 0.8687 30.4337 -13.4718)" fill="#282D33" width="33.551" height="4.012"/>
	</g>
	<g>
		<path fill="#282D33" d="M12.557,49.187L7.891,31.988l17.371-4.599l4.667,17.199L12.557,49.187z M12.819,34.833l2.565,9.455
			L25,41.744l-2.565-9.456L12.819,34.833z"/>
	</g>
	<g>
		<polygon fill="#282D33" points="20.571,60.838 19.545,56.959 41.496,51.149 35.619,29.492 39.491,28.441 46.426,53.995 		"/>
	</g>
	<g>
		
			<rect x="38.625" y="60.553" transform="matrix(0.4953 0.8687 -0.8687 0.4953 87.6812 3.7294)" fill="#282D33" width="4.012" height="33.551"/>
	</g>
	<g>
		<path fill="#282D33" d="M25.26,100.61L7.892,96.015l4.665-17.2l17.371,4.598L25.26,100.61z M12.82,93.168l9.612,2.545l2.565-9.455
			l-9.613-2.544L12.82,93.168z"/>
	</g>
	<g>
		<polygon fill="#282D33" points="39.491,99.561 35.619,98.51 41.496,76.852 19.545,71.043 20.571,67.165 46.425,74.005 		"/>
	</g>
	<g>
		<rect x="61.996" y="74.035" fill="#282D33" width="4.012" height="33.237"/>
	</g>
	<g>
		<path fill="#282D33" d="M64.001,128l-12.735-12.576L64,102.852l12.731,12.576L64.001,128z M56.976,115.424l7.025,6.938
			l7.021-6.935l-7.023-6.938L56.976,115.424z"/>
	</g>
	<g>
		<polygon fill="#282D33" points="80.088,105.565 63.999,89.677 47.915,105.565 45.095,102.711 63.999,84.037 82.906,102.711 		"/>
	</g>
	<g>
		
			<rect x="70.598" y="75.321" transform="matrix(0.8687 0.4953 -0.4953 0.8687 49.7716 -33.1242)" fill="#282D33" width="33.547" height="4.011"/>
	</g>
	<g>
		<path fill="#282D33" d="M102.736,100.613l-4.665-17.199l17.371-4.596l4.667,17.195L102.736,100.613z M103,86.26l2.565,9.454
			l9.615-2.545l-2.565-9.453L103,86.26z"/>
	</g>
	<g>
		<polygon fill="#282D33" points="88.51,99.561 81.575,74.005 107.429,67.165 108.456,71.043 86.504,76.852 92.383,98.51 		"/>
	</g>
	<g>
		
			<rect x="85.363" y="33.901" transform="matrix(0.4956 0.8685 -0.8685 0.4956 88.0809 -50.3242)" fill="#282D33" width="4.012" height="33.548"/>
	</g>
	<g>
		<path fill="#282D33" d="M115.446,49.188l-17.373-4.598l4.668-17.199l17.368,4.596L115.446,49.188z M103.002,41.746l9.615,2.544
			l2.563-9.456l-9.612-2.544L103.002,41.746z"/>
	</g>
	<g>
		<polygon fill="#282D33" points="107.429,60.838 81.575,53.998 88.51,28.441 92.383,29.492 86.504,51.152 108.456,56.959 		"/>
	</g>
	<g>
		<path fill="#282D33" d="M70.364,74.074H58.52l-5.944-10.167l5.944-10.168h11.845l5.945,10.168L70.364,74.074z M60.821,70.063
			h7.241l3.601-6.155l-3.601-6.156h-7.241l-3.599,6.156L60.821,70.063z"/>
	</g>
</g>
</svg>
