<?xml version="1.0" encoding="utf-8"?>
<!-- Generator: Adobe Illustrator 24.3.0, SVG Export Plug-In . SVG Version: 6.00 Build 0)  -->
<svg version="1.1" id="Layer_1" xmlns="http://www.w3.org/2000/svg" xmlns:xlink="http://www.w3.org/1999/xlink" x="0px" y="0px"
	 viewBox="0 0 400 400" enable-background="new 0 0 400 400" xml:space="preserve">
<g>
	<g>
		<g>
			<path fill="#FFDA88" d="M280.93,191.352c-3.285-6.603-6.914-12.63-12.037-17.824l-37.585,27.257v-46.87
				c0-0.57-6.335-0.953-10.062-0.953c-3.721,0-6.708,0.383-10.062,0.953v46.87l-39.697-27.257
				c-5.126,5.195-10.128,11.221-13.409,17.824l42.602,30.657l-43.159,30.66c3.282,6.601,8.928,12.633,14.058,17.824l39.605-27.255
				v46.872c3.354,0.566,6.341,0.95,10.062,0.95c3.727,0,10.062-0.383,10.062-0.95v-46.872l37.585,27.255
				c5.122-5.191,9.066-11.223,12.348-17.824l-43.126-30.66L280.93,191.352z"/>
		</g>
		<g>
			<path fill="#FFDA88" d="M71.548,197.284c0-60.371,45.727-128.321,132.929-128.321v65.59c0,0-56.405,5.714-67.337,62.731H71.548z"
				/>
		</g>
		<g>
			<path fill="#FFE2A9" d="M204.477,69.356v-0.393c-87.202,0-132.929,67.95-132.929,128.321h10.93
				C82.478,140.267,123.983,74.605,204.477,69.356z"/>
		</g>
		<g>
			<path fill="#D1D1D1" d="M126.207,220.581c0-7.489,0.763-13.236,2.194-23.297h-16.396c-1.431,10.062-2.195,15.808-2.195,23.297
				c0,60.376,48.943,110.036,109.321,110.036c2.768,0,5.486-0.571,8.202-0.776C170.797,325.639,126.207,278.191,126.207,220.581z"/>
		</g>
		<g>
			<path fill="#FE6F80" d="M115.277,172.816c0,3.02-2.447,5.465-5.467,5.465c-3.02,0-5.467-2.445-5.467-5.465
				c0-3.018,2.447-5.465,5.467-5.465C112.83,167.351,115.277,169.797,115.277,172.816z"/>
		</g>
		<g>
			<path fill="#FE6F80" d="M180.869,101.756c0,3.022-2.447,5.468-5.466,5.468c-3.017,0-5.464-2.446-5.464-5.468
				c0-3.017,2.447-5.463,5.464-5.463C178.422,96.292,180.869,98.739,180.869,101.756z"/>
		</g>
		<g>
			<path fill="#FE6F80" d="M142.606,129.087c0,3.022-2.447,5.467-5.466,5.467c-3.017,0-5.464-2.445-5.464-5.467
				c0-3.018,2.447-5.465,5.464-5.465C140.159,123.622,142.606,126.068,142.606,129.087z"/>
		</g>
		<g>
			<path fill="#FFE2A9" d="M221.247,291.06V152.962c-3.354,0-3.498-0.102-10.206,0.468l0.144,47.355l-40.591-27.88
				c-5.126,5.195-9.895,11.503-13.177,18.106l43.168,30.998l-43.168,30.66c3.285,6.601,8.133,13.334,13.255,18.525l40.513-27.956
				v46.872C217.893,290.677,217.893,291.06,221.247,291.06z"/>
		</g>
		<g>
			<path fill="#FE6F80" d="M230.064,222.01c0,6.036-4.9,10.933-10.933,10.933c-6.036,0-10.926-4.896-10.926-10.933
				c0-6.034,4.89-10.93,10.926-10.93C225.164,211.08,230.064,215.976,230.064,222.01z"/>
		</g>
		<g>
			<path fill="#FFA1AA" d="M219.131,222.01c0-4.032,2.214-7.517,5.47-9.415c-1.615-0.938-3.465-1.515-5.47-1.515
				c-6.036,0-10.926,4.896-10.926,10.93c0,6.036,4.89,10.933,10.926,10.933c2.005,0,3.855-0.576,5.47-1.513
				C221.345,229.53,219.131,226.046,219.131,222.01z"/>
		</g>
		<g>
			<path fill="#C1C1C1" d="M219.999,112.689c-5.588,0-8.814,0.554-15.522,1.363v20.502c0,0-56.405,5.714-67.337,62.731h-25.135
				c-1.431,10.062-2.195,15.808-2.195,23.297c0,60.376,48.943,110.036,109.321,110.036c60.378,0,109.75-48.588,109.75-108.964
				C328.881,161.277,280.383,112.689,219.999,112.689z M219.131,291.06c-38.138,0-69.047-30.916-69.047-69.051
				c0-38.132,30.909-69.047,69.047-69.047c38.132,0,69.048,30.916,69.048,69.047C288.179,260.144,257.263,291.06,219.131,291.06z"/>
		</g>
	</g>
	<g>
		<g>
			<path fill="#161616" d="M219.57,296.091c-4.035,0-7.275-0.408-10.9-1.02c-2.42-0.409-4.192-2.506-4.192-4.961v-37.191
				l-30.896,21.692c-2.018,1.417-4.749,1.159-6.472-0.581c-6.266-6.343-11.041-12.775-14.195-19.12
				c-1.104-2.216-0.429-4.903,1.585-6.338l37.316-26.574l-37.083-26.555c-2.008-1.438-2.676-4.119-1.576-6.329
				c3.334-6.71,8.015-13.142,13.914-19.12c1.719-1.743,4.448-2.001,6.469-0.585l30.939,21.702v-37.196
				c0-2.453,1.769-4.549,4.189-4.961c3.616-0.614,6.855-1.023,10.904-1.023c9.39,0,15.093,0.403,15.093,5.984v37.132l30.48-21.624
				c2.014-1.43,4.762-1.182,6.495,0.572c5.738,5.822,10.383,12.253,13.796,19.116c1.104,2.214,0.429,4.902-1.585,6.338
				l-37.28,26.565l37.178,26.561c2.011,1.438,2.679,4.12,1.579,6.335c-3.485,7.011-8.09,13.444-13.691,19.118
				c-1.729,1.754-4.477,1.998-6.492,0.57l-30.48-21.622v37.134C234.663,295.688,228.96,296.091,219.57,296.091z M214.539,285.754
				c1.608,0.177,3.22,0.275,5.031,0.275c1.634,0,3.478-0.072,5.031-0.174v-42.617c0-1.882,1.051-3.606,2.722-4.469
				c1.674-0.868,3.685-0.721,5.221,0.365l34.82,24.703c2.617-3.018,4.933-6.246,6.924-9.652l-39.307-28.081
				c-1.323-0.945-2.106-2.471-2.106-4.097s0.786-3.151,2.113-4.094l39.399-28.073c-1.985-3.359-4.33-6.588-7.016-9.659
				l-34.827,24.709c-1.536,1.089-3.547,1.231-5.221,0.365c-1.671-0.863-2.722-2.588-2.722-4.469v-42.619
				c-1.549-0.102-3.397-0.174-5.031-0.174c-1.814,0-3.426,0.098-5.031,0.275v42.517c0,1.877-1.045,3.598-2.709,4.463
				c-1.664,0.866-3.678,0.732-5.211-0.344l-35.279-24.747c-2.768,3.134-5.152,6.377-7.134,9.697l39.193,28.065
				c1.323,0.947,2.106,2.473,2.103,4.097c-0.003,1.625-0.789,3.149-2.113,4.091l-39.396,28.055c1.965,3.2,4.428,6.449,7.366,9.715
				l35.256-24.755c1.543-1.076,3.547-1.212,5.211-0.347c1.667,0.866,2.712,2.587,2.712,4.464V285.754z"/>
		</g>
		<g>
			<path fill="#161616" d="M230.064,222.01c0,6.036-4.9,10.933-10.933,10.933c-6.036,0-10.926-4.896-10.926-10.933
				c0-6.034,4.89-10.93,10.926-10.93C225.164,211.08,230.064,215.976,230.064,222.01z"/>
		</g>
		<g>
			<path fill="#161616" d="M115.277,172.816c0,3.02-2.447,5.465-5.467,5.465c-3.02,0-5.467-2.445-5.467-5.465
				c0-3.018,2.447-5.465,5.467-5.465C112.83,167.351,115.277,169.797,115.277,172.816z"/>
		</g>
		<g>
			<path fill="#161616" d="M180.869,101.756c0,3.022-2.447,5.468-5.466,5.468c-3.017,0-5.464-2.446-5.464-5.468
				c0-3.017,2.447-5.463,5.464-5.463C178.422,96.292,180.869,98.739,180.869,101.756z"/>
		</g>
		<g>
			<path fill="#161616" d="M142.606,129.087c0,3.022-2.447,5.467-5.466,5.467c-3.017,0-5.464-2.445-5.464-5.467
				c0-3.018,2.447-5.465,5.464-5.465C140.159,123.622,142.606,126.068,142.606,129.087z"/>
		</g>
		<g>
			<path fill="#161616" d="M219.131,336.068c-63.054,0-114.352-51.431-114.352-114.648c0-7.428,0.714-12.438,2.011-21.532
				l0.232-1.636c0.354-2.479,2.476-4.322,4.982-4.322h21.067c11.061-46.86,51.311-60.273,64.698-63.477v-16.401
				c0-2.545,1.9-4.69,4.428-4.995l1.582-0.192c5.774-0.701,9.944-1.207,15.381-1.207c63.037,0,114.322,51.298,114.322,114.352
				c0,25.099-8.083,48.989-23.379,69.087c-1.684,2.212-4.838,2.637-7.048,0.958c-2.211-1.684-2.64-4.839-0.956-7.05
				c13.95-18.332,21.322-40.115,21.322-62.994c0-57.505-46.772-104.29-104.26-104.29c-3.97,0-7.186,0.305-11.329,0.793v16.041
				c0,2.519-1.86,4.649-4.356,4.985c-2.083,0.29-51.298,7.72-61.393,60.371c-0.455,2.37-2.529,4.083-4.943,4.083h-20.769
				c-1.019,7.206-1.53,11.423-1.53,17.428c0,57.669,46.785,104.586,104.29,104.586c25.358,0,49.775-9.186,68.752-25.864
				c2.09-1.834,5.267-1.626,7.101,0.458c1.834,2.088,1.628,5.267-0.459,7.101C273.711,325.993,246.935,336.068,219.131,336.068z
				 M219.131,296.091c-40.847,0-74.078-33.233-74.078-74.081c0-40.847,33.231-74.078,74.078-74.078
				c40.847,0,74.078,33.232,74.078,74.078C293.209,262.858,259.978,296.091,219.131,296.091z M219.131,157.993
				c-35.298,0-64.016,28.718-64.016,64.016c0,35.3,28.718,64.02,64.016,64.02c35.298,0,64.016-28.72,64.016-64.02
				C283.148,186.711,254.429,157.993,219.131,157.993z"/>
		</g>
		<g>
			<path fill="#161616" d="M137.14,203.992H71.548c-2.777,0-5.031-2.252-5.031-5.031c0-36.268,12.754-69.977,35.914-94.917
				c1.893-2.039,5.07-2.152,7.111-0.264c2.037,1.89,2.155,5.074,0.265,7.109c-20.359,21.922-32.026,51.251-33.14,83.041h56.405
				c11.061-46.86,51.311-60.273,64.698-63.477v-56.4c-29.563,0.703-51.413,7.745-72.31,23.153c-2.24,1.643-5.388,1.174-7.035-1.064
				c-1.651-2.235-1.173-5.386,1.061-7.035c23.933-17.646,48.852-25.174,83.315-25.174c2.777,0,5.031,2.252,5.031,5.031v65.59
				c0,2.519-1.86,4.649-4.356,4.985c-2.083,0.29-51.298,7.72-61.393,60.371C141.627,202.279,139.554,203.992,137.14,203.992z"/>
		</g>
	</g>
</g>
</svg>
