<?xml version="1.0" encoding="utf-8"?>
<!-- Generator: Adobe Illustrator 24.3.0, SVG Export Plug-In . SVG Version: 6.00 Build 0)  -->
<svg version="1.1" id="Layer_1" xmlns="http://www.w3.org/2000/svg" xmlns:xlink="http://www.w3.org/1999/xlink" x="0px" y="0px"
	 viewBox="0 0 400 400" enable-background="new 0 0 400 400" xml:space="preserve">
<g>
	<g>
		<g>
			<rect x="70.87" y="96.028" fill="#E5E5E4" width="144.219" height="184.467"/>
		</g>
		<g>
			<rect x="70.87" y="96.028" fill="#EFEFEF" width="13.416" height="184.467"/>
		</g>
		<g>
			<path fill="#7FD3B9" d="M299.003,188.484l-38.944-38.793h-44.97v93.91h50.43c0-6.708,7.343-16.396,16.4-16.396
				c9.056,0,16.406,9.689,16.406,16.396h34.152v-21.794C332.477,221.807,331.796,188.484,299.003,188.484z"/>
		</g>
		<g>
			<path fill="#C1C1C1" d="M298.325,243.673c0,9.056-7.35,16.393-16.406,16.393c-9.056,0-16.4-7.337-16.4-16.393
				c0-9.063,7.343-16.403,16.4-16.403C290.976,227.271,298.325,234.61,298.325,243.673z"/>
		</g>
		<g>
			<path fill="#FFDA88" d="M287.386,243.673c0,3.02-2.444,5.463-5.466,5.463c-3.02,0-5.46-2.443-5.46-5.463
				c0-3.027,2.44-5.47,5.46-5.47C284.942,238.203,287.386,240.647,287.386,243.673z"/>
		</g>
		<g>
			<path fill="#FFDA88" d="M315.708,206.708v16.77h16.77c0,0,0.419-6.708-3.685-16.77H315.708z"/>
		</g>
		<g>
			<path fill="#D1D1D1" d="M276.459,243.673c0-7.137,4.575-13.141,10.926-15.394c-1.716-0.612-3.537-1.008-5.466-1.008
				c-9.056,0-16.4,7.34-16.4,16.403c0,9.056,7.343,16.393,16.4,16.393c1.929,0,3.75-0.39,5.466-1.002
				C281.035,256.811,276.459,250.804,276.459,243.673z"/>
		</g>
		<g>
			<rect x="70.87" y="280.495" fill="#C1C1C1" width="144.219" height="20.124"/>
		</g>
		<g>
			<path fill="#FE6F80" d="M157.945,136.278c2.135-2.132,5.591-2.132,7.723,0l3.862,3.868l15.466-15.46
				c2.136-2.132,5.591-2.132,7.73,0c2.139,2.135,2.139,5.594,0,7.73l-19.324,19.324c-2.142,2.139-5.594,2.139-7.733,0l-7.723-7.73
				C155.802,141.876,155.802,138.424,157.945,136.278z"/>
		</g>
		<g>
			<path fill="#FE6F80" d="M157.945,180.01c2.135-2.132,5.591-2.132,7.723,0l3.862,3.862l15.466-15.46
				c2.136-2.129,5.591-2.129,7.73,0c2.139,2.142,2.139,5.594,0,7.733l-19.324,19.324c-2.142,2.139-5.594,2.139-7.733,0l-7.723-7.733
				C155.802,185.605,155.802,182.146,157.945,180.01z"/>
		</g>
		<g>
			<path fill="#FE6F80" d="M157.945,229.203c2.135-2.132,5.591-2.132,7.723,0l3.862,3.868l15.466-15.46
				c2.136-2.136,5.591-2.136,7.73,0c2.139,2.139,2.139,5.594,0,7.73l-19.324,19.321c-2.142,2.142-5.594,2.142-7.733,0l-7.723-7.73
				C155.802,234.797,155.802,231.342,157.945,229.203z"/>
		</g>
		<g>
			<rect x="70.87" y="280.495" fill="#D1D1D1" width="13.416" height="20.124"/>
		</g>
		<g>
			<rect x="215.089" y="149.691" fill="#BBEAD9" width="13.416" height="93.91"/>
		</g>
		<g>
			<polygon fill="#E5E5E4" points="221.797,188.261 221.797,166.461 276.459,166.461 299.003,188.484 			"/>
		</g>
		<g>
			<rect x="221.797" y="166.461" fill="#EFEFEF" width="6.708" height="22.023"/>
		</g>
		<g>
			<rect x="84.286" y="146.337" fill="#C1C1C1" width="57.017" height="10.062"/>
		</g>
		<g>
			<rect x="84.286" y="126.492" fill="#C1C1C1" width="36.893" height="9.783"/>
		</g>
		<g>
			<rect x="84.286" y="189.938" fill="#C1C1C1" width="57.017" height="10.062"/>
		</g>
		<g>
			<rect x="84.286" y="170.093" fill="#C1C1C1" width="36.893" height="9.783"/>
		</g>
		<g>
			<rect x="84.286" y="236.893" fill="#C1C1C1" width="57.017" height="10.062"/>
		</g>
		<g>
			<rect x="84.286" y="217.048" fill="#C1C1C1" width="36.893" height="9.783"/>
		</g>
	</g>
	<g>
		<g>
			<path fill="#161616" d="M330.8,250.309h-32.475c-2.777,0-5.031-2.253-5.031-5.031c0-3.901-1.107-12.977-11.375-12.977
				c-11.238,0-11.369,12.846-11.369,12.977c0,2.777-2.254,5.031-5.031,5.031h-16.891c-2.777,0-5.031-2.253-5.031-5.031
				s2.253-5.031,5.031-5.031h12.41c1.775-8.372,7.989-18.008,20.88-18.008c12.63,0,19.311,8.418,21.001,18.008h22.849v-18.44
				c-0.007-2.817-0.832-27.454-27.604-27.454c-1.33,0-2.607-0.527-3.551-1.467l-36.631-36.487h-39.54v83.849h10.062
				c2.777,0,5.031,2.253,5.031,5.031s-2.253,5.031-5.031,5.031h-15.093c-2.777,0-5.031-2.253-5.031-5.031v-93.91
				c0-2.777,2.253-5.031,5.031-5.031h46.647c1.33,0,2.607,0.527,3.55,1.467l36.674,36.53c10.14,0.403,18.398,3.747,24.575,9.954
				c10.926,10.979,10.976,26.874,10.972,27.542v23.448C335.831,248.056,333.578,250.309,330.8,250.309z"/>
		</g>
		<g>
			<path fill="#161616" d="M298.325,193.292h-74.851c-2.777,0-5.031-2.253-5.031-5.031v-20.124c0-2.777,2.253-5.031,5.031-5.031
				h52.985c1.261,0,2.479,0.475,3.406,1.33l21.866,20.124c1.526,1.402,2.034,3.6,1.281,5.529
				C302.259,192.021,300.399,193.292,298.325,193.292z M228.505,183.23h56.925l-10.933-10.062h-45.992V183.23z"/>
		</g>
		<g>
			<path fill="#161616" d="M281.919,265.097c-11.817,0-21.431-9.61-21.431-21.424c0-11.817,9.613-21.434,21.431-21.434
				c11.821,0,21.437,9.616,21.437,21.434C303.356,255.487,293.74,265.097,281.919,265.097z M281.919,232.301
				c-6.269,0-11.369,5.103-11.369,11.372c0,6.266,5.1,11.362,11.369,11.362c6.272,0,11.375-5.096,11.375-11.362
				C293.294,237.404,288.191,232.301,281.919,232.301z"/>
		</g>
		<g>
			<path fill="#161616" d="M287.386,243.673c0,3.02-2.444,5.463-5.466,5.463c-3.02,0-5.46-2.443-5.46-5.463
				c0-3.027,2.44-5.47,5.46-5.47C284.942,238.203,287.386,240.647,287.386,243.673z"/>
		</g>
		<g>
			<path fill="#161616" d="M330.8,230.185h-16.77c-2.777,0-5.031-2.253-5.031-5.031v-16.77c0-2.778,2.253-5.031,5.031-5.031h12.983
				c2.044,0,3.884,1.238,4.658,3.131c4.399,10.779,4.192,18.106,4.153,18.908C335.697,228.076,333.486,230.185,330.8,230.185z
				 M319.061,220.124h6.213c-0.327-1.815-0.865-4.088-1.752-6.708h-4.461V220.124z"/>
		</g>
		<g>
			<path fill="#161616" d="M213.412,307.326H69.193c-2.777,0-5.031-2.253-5.031-5.031v-20.124c0-2.777,2.253-5.031,5.031-5.031
				h144.219c2.778,0,5.031,2.253,5.031,5.031v20.124C218.443,305.073,216.19,307.326,213.412,307.326z M74.224,297.264h134.158
				v-10.062H74.224V297.264z"/>
		</g>
		<g>
			<rect x="84.286" y="146.337" fill="#161616" width="57.017" height="10.062"/>
		</g>
		<g>
			<path fill="#161616" d="M157.945,136.278c2.135-2.132,5.591-2.132,7.723,0l3.862,3.868l15.466-15.46
				c2.136-2.132,5.591-2.132,7.73,0c2.139,2.135,2.139,5.594,0,7.73l-19.324,19.324c-2.142,2.139-5.594,2.139-7.733,0l-7.723-7.73
				C155.802,141.876,155.802,138.424,157.945,136.278z"/>
		</g>
		<g>
			<path fill="#161616" d="M157.945,180.01c2.135-2.132,5.591-2.132,7.723,0l3.862,3.862l15.466-15.46
				c2.136-2.129,5.591-2.129,7.73,0c2.139,2.142,2.139,5.594,0,7.733l-19.324,19.324c-2.142,2.139-5.594,2.139-7.733,0l-7.723-7.733
				C155.802,185.605,155.802,182.146,157.945,180.01z"/>
		</g>
		<g>
			<path fill="#161616" d="M157.945,229.203c2.135-2.132,5.591-2.132,7.723,0l3.862,3.868l15.466-15.46
				c2.136-2.136,5.591-2.136,7.73,0c2.139,2.139,2.139,5.594,0,7.73l-19.324,19.321c-2.142,2.142-5.594,2.142-7.733,0l-7.723-7.73
				C155.802,234.797,155.802,231.342,157.945,229.203z"/>
		</g>
		<g>
			<path fill="#161616" d="M213.412,287.202H69.193c-2.777,0-5.031-2.254-5.031-5.031V97.705c0-2.777,2.253-5.031,5.031-5.031
				h21.801c2.777,0,5.031,2.253,5.031,5.031c0,2.778-2.253,5.031-5.031,5.031h-16.77v174.405h134.158V102.736h-93.91
				c-2.778,0-5.031-2.253-5.031-5.031c0-2.777,2.253-5.031,5.031-5.031h98.941c2.778,0,5.031,2.253,5.031,5.031v184.467
				C218.443,284.949,216.19,287.202,213.412,287.202z"/>
		</g>
		<g>
			<rect x="84.286" y="126.492" fill="#161616" width="36.893" height="9.783"/>
		</g>
		<g>
			<rect x="84.286" y="189.938" fill="#161616" width="57.017" height="10.062"/>
		</g>
		<g>
			<rect x="84.286" y="170.093" fill="#161616" width="36.893" height="9.783"/>
		</g>
		<g>
			<rect x="84.286" y="236.893" fill="#161616" width="57.017" height="10.062"/>
		</g>
		<g>
			<rect x="84.286" y="217.048" fill="#161616" width="36.893" height="9.783"/>
		</g>
	</g>
</g>
</svg>
