<?xml version="1.0" encoding="iso-8859-1"?>
<!-- Generator: Adobe Illustrator 19.0.0, SVG Export Plug-In . SVG Version: 6.00 Build 0)  -->
<svg xmlns="http://www.w3.org/2000/svg" xmlns:xlink="http://www.w3.org/1999/xlink" version="1.1" id="Layer_1" x="0px" y="0px" viewBox="0 0 512 512" style="enable-background:new 0 0 512 512;" xml:space="preserve">
<rect x="415.885" y="237.105" style="fill:#D2D6CE;" width="41.092" height="116.157"/>
<rect x="415.885" y="295.188" style="fill:#BCC1B8;" width="41.092" height="58.084"/>
<path style="fill:#777984;" d="M404.988,212.915h-16.392v161.961h16.392c6.75,0,12.224-5.473,12.224-12.224V225.139  C417.211,218.389,411.738,212.915,404.988,212.915z"/>
<path style="fill:#676872;" d="M494.727,216.923c-15.101,0-28.816,5.891-39.004,15.486V357.97  c10.203,9.61,23.786,15.486,39.415,15.486c5.234,0,9.479-4.243,9.479-9.479V226.399C504.617,221.49,500.837,216.923,494.727,216.923  z"/>
<path style="fill:#61626D;" d="M404.988,349.001h-16.392v25.877h16.392c6.75,0,12.224-5.473,12.224-12.224v-25.877  C417.211,343.527,411.738,349.001,404.988,349.001z"/>
<path style="fill:#464856;" d="M494.727,347.581c-15.101,0-28.816-5.891-39.004-15.486v25.877  c10.203,9.61,23.786,15.486,39.415,15.486c5.234,0,9.479-4.243,9.479-9.479v-25.877  C504.617,343.012,500.837,347.581,494.727,347.581z"/>
<rect x="223.234" y="141.039" style="fill:#7E8089;" width="77.415" height="53.503"/>
<rect x="223.234" y="141.039" style="fill:#5A5E6B;" width="25.002" height="53.503"/>
<path style="fill:#94969B;" d="M300.647,194.545v-50.971c-15.719,14.261-28.622,31.563-37.802,50.971H300.647z"/>
<rect x="32.612" y="258.346" style="fill:#D2D6CE;" width="55.753" height="25.466"/>
<rect x="32.612" y="271.077" style="fill:#BCC1B8;" width="55.753" height="12.733"/>
<path style="fill:#777984;" d="M137.329,210.475H99.804c-6.751,0-12.225,5.473-12.225,12.224v96.769  c0,6.75,5.473,12.225,12.225,12.225h37.525V210.475z"/>
<path style="fill:#61626D;" d="M112.455,319.467v-96.769c0-6.75,5.473-12.224,12.224-12.224H99.804  c-6.751,0-12.225,5.473-12.225,12.224v96.769c0,6.75,5.473,12.225,12.225,12.225h24.875  C117.928,331.692,112.455,326.217,112.455,319.467z"/>
<path style="fill:#676872;" d="M20.35,317.94c-7.031,0-12.733-5.7-12.733-12.732V236.96c0-7.031,5.7-12.733,12.733-12.733  c7.033,0,12.733,5.701,12.733,12.733v68.248C33.083,312.239,27.384,317.94,20.35,317.94z"/>
<path style="fill:#464856;" d="M19.879,305.208V236.96c0-4.809,2.668-8.993,6.601-11.159c-1.818-1.002-3.907-1.574-6.131-1.574  c-7.031,0-12.733,5.701-12.733,12.733v68.248c0,9.708,10.436,15.801,18.863,11.158C22.547,314.2,19.879,310.016,19.879,305.208z"/>
<path style="fill:#676872;" d="M377.373,193.361h-228.82c-6.75,0-12.224,5.473-12.224,12.224v129.702l44.046,59.954h196.998  c6.75,0,12.224-5.474,12.224-12.225V205.584C389.596,198.834,384.123,193.361,377.373,193.361z"/>
<path style="fill:#464856;" d="M160.607,330.993V193.361h-12.054c-6.75,0-12.224,5.473-12.224,12.224v129.702l44.046,59.954h27.433  L160.607,330.993z"/>
<path style="fill:#676872;" d="M302.168,116.761c-9.194,0-71.427,0-80.457,0c-7.031,0-12.732,5.701-12.732,12.733  c0,7.033,5.7,12.733,12.732,12.733c9.026,0,71.263,0,80.457,0c7.031,0,12.732-5.699,12.732-12.733  C314.901,122.462,309.201,116.761,302.168,116.761z"/>
<path style="fill:#464856;" d="M302.168,129.493H289.96c-7.289,0-60.502,0-68.248,0c-4.709,0-8.814-2.563-11.015-6.365  c-4.907,8.469,1.219,19.099,11.015,19.099c9.026,0,71.263,0,80.457,0c9.785,0,15.927-10.622,11.016-19.099  C310.981,126.93,306.879,129.493,302.168,129.493z"/>
<circle style="fill:#FF8C01;" cx="199.042" cy="251.116" r="20.121"/>
<path style="fill:#ED6306;" d="M209.098,233.71c-13.387-7.754-30.181,1.932-30.181,17.406c0,11.111,9.009,20.12,20.12,20.12  c3.669,0,7.098-0.998,10.061-2.714C195.686,260.753,195.707,241.468,209.098,233.71z"/>
<circle style="fill:#FF8C01;" cx="308.399" cy="317.57" r="42.869"/>
<path style="fill:#ED6306;" d="M290.178,317.574c0-19.39,12.878-35.767,30.544-41.063c-27.541-8.253-55.193,12.408-55.193,41.063  c0,28.627,27.628,49.328,55.193,41.061C303.055,353.339,290.178,336.962,290.178,317.574z"/>
<circle style="fill:#494C59;" cx="308.399" cy="317.94" r="12.224"/>
<path d="M327.939,271.2l-0.012-0.005c-1.004-0.427-2.03-0.812-3.066-1.174c-128.471-49.202-119.373-46.525-125.94-46.525  c-15.23,0-27.621,12.391-27.621,27.621c0,8.138,3.539,15.464,9.158,20.523c0.055,0.052,0.104,0.107,0.161,0.157l91.164,80.436  c2.1,2.21,4.394,4.232,6.862,6.034c0.267,0.216,0.542,0.416,0.828,0.589c8.171,5.719,18.1,9.088,28.808,9.088  c27.774,0,50.369-22.595,50.369-50.369c0-20.501-12.318-38.168-29.935-46.022C328.465,271.422,328.208,271.303,327.939,271.2z   M198.92,238.496c6.958,0,12.62,5.661,12.62,12.62s-5.661,12.62-12.62,12.62c-6.958,0-12.62-5.661-12.62-12.62  S191.962,238.496,198.92,238.496z M208.994,276.827c10.262-4.034,17.548-14.034,17.548-25.711c0-0.924-0.047-1.838-0.137-2.739  l61.014,23.367c-17.389,7.947-29.509,25.494-29.509,45.829c0,0.828,0.023,1.651,0.063,2.469L208.994,276.827z M343.648,317.574  c0,19.502-15.866,35.368-35.368,35.368c-7.571,0-14.59-2.4-20.349-6.467l-5.828-5.143c-5.707-6.282-9.19-14.621-9.19-23.758  c0-19.503,15.866-35.369,35.368-35.369c3.99,0,7.823,0.674,11.404,1.897l2.542,0.974  C334.812,290.497,343.648,303.021,343.648,317.574z"/>
<path d="M308.28,298.216c-10.876,0-19.724,8.849-19.724,19.724c0,10.876,8.849,19.724,19.724,19.724  c10.876,0,19.724-8.849,19.724-19.724C328.004,307.064,319.155,298.216,308.28,298.216z M308.28,322.663  c-2.604,0-4.723-2.118-4.723-4.723s2.118-4.723,4.723-4.723s4.723,2.118,4.723,4.723S310.884,322.663,308.28,322.663z"/>
<path d="M504.5,250.547c4.143,0,7.5-3.357,7.5-7.5v-16.647c0-8.887-6.993-16.978-17.39-16.978  c-25.125,0-44.026,15.399-45.955,20.187h-24.061v-4.47c0-10.876-8.849-19.724-19.724-19.724h-7.899  c-0.092-10.798-8.897-19.555-19.715-19.555h-21.887c-4.143,0-7.5,3.357-7.5,7.5c0,4.143,3.357,7.5,7.5,7.5h21.887  c2.604,0,4.723,2.118,4.723,4.723c0,19.896,0,156.181,0,177.432c0,2.604-2.118,4.724-4.723,4.724h-193.2l-40.342-54.912  c0-4.468,0-116.9,0-127.243c0-2.604,2.118-4.723,4.723-4.723c5.11,0,168.378,0,181.264,0c4.143,0,7.5-3.357,7.5-7.5  c0-4.143-3.357-7.5-7.5-7.5h-21.669v-37.036c8.247-2.556,14.254-10.255,14.254-19.33c0-11.157-9.077-20.233-20.232-20.233h-80.457  c-11.156,0-20.232,9.077-20.232,20.233c0,9.076,6.007,16.774,14.253,19.33v37.036h-67.179c-9.989,0-18.247,7.47-19.531,17.114  H99.687c-10.877,0-19.725,8.849-19.725,19.724v28.151H40.466v-13.891c0-11.157-9.077-20.233-20.233-20.233  C9.077,216.726,0,225.802,0,236.959v68.248c0,11.156,9.077,20.232,20.232,20.232c11.157,0,20.233-9.077,20.233-20.232v-13.892  h39.495v28.151c0,10.877,8.849,19.725,19.725,19.725h30.15c0.482,0.787-2.955-3.938,44.377,60.489  c1.413,1.924,3.657,3.06,6.044,3.06h196.997c10.235,0,19.724-7.98,19.724-20.363h7.891c10.876,0,19.724-8.849,19.724-19.724v-1.884  h24.06c0.402,0.997,1.01,1.909,1.809,2.661c11.663,10.985,27.085,17.526,44.558,17.526c9.362,0,16.979-7.616,16.979-16.979V266.05  c0-4.143-3.357-7.5-7.5-7.5s-7.5,3.357-7.5,7.5v97.927c0,1.057-0.714,1.978-2.389,1.978c-11.578,0-22.647-4.013-31.504-11.361  c0-11.543,0-113.548,0-118.811c8.699-7.217,19.586-11.361,31.915-11.361c1.091,0,1.978,0.887,1.978,1.977v16.647  C496.999,247.189,500.356,250.547,504.5,250.547z M221.594,124.261h80.457c2.885,0,5.231,2.348,5.231,5.232  c0,2.884-2.347,5.232-5.231,5.232c-23.127,0-71.02,0-80.457,0c-2.885,0-5.231-2.348-5.231-5.232  C216.363,126.609,218.709,124.261,221.594,124.261z M230.616,149.728h62.414v36.133h-62.414L230.616,149.728L230.616,149.728z   M25.466,305.207c0,2.885-2.348,5.231-5.232,5.231s-5.232-2.346-5.232-5.231v-68.248c0-2.885,2.347-5.232,5.231-5.232  s5.232,2.348,5.232,5.232C25.466,243.83,25.466,298.558,25.466,305.207z M40.466,276.315v-10.465h39.495v10.465H40.466z   M94.963,319.467c0-11.592,0-89.531,0-96.769c0-2.604,2.119-4.723,4.724-4.723h29.025V324.19H99.687  C97.082,324.191,94.963,322.072,94.963,319.467z M409.593,362.653c0,2.604-2.118,4.723-4.723,4.723h-7.891V220.416h7.891  c2.604,0,4.723,2.118,4.723,4.723c0,5.05,0,122.332,0,128.13V362.653z M424.594,244.61h23.511v101.158h-23.511V244.61z"/>
<g>
</g>
<g>
</g>
<g>
</g>
<g>
</g>
<g>
</g>
<g>
</g>
<g>
</g>
<g>
</g>
<g>
</g>
<g>
</g>
<g>
</g>
<g>
</g>
<g>
</g>
<g>
</g>
<g>
</g>
</svg>
